<svg id="Layer_1" data-name="Layer 1" xmlns="http://www.w3.org/2000/svg" viewBox="0 0 523.38 523.38"><defs><style>.cls-1,.cls-2,.cls-3{fill:none;}.cls-1{stroke:#8c8c8c;stroke-miterlimit:10;stroke-width:0.88px;}.cls-2{stroke:#427fb3;}.cls-2,.cls-3{stroke-linecap:round;stroke-linejoin:round;stroke-width:5.25px;}.cls-3{stroke:#51b5eb;}</style></defs><title>linesample</title><line class="cls-1" y1="523.38" x2="523.38" y2="523.38"/><line class="cls-1" y1="523.38" y2="510.29"/><line class="cls-1" x1="130.84" y1="523.38" x2="130.84" y2="510.29"/><line class="cls-1" x1="261.69" y1="523.38" x2="261.69" y2="510.29"/><line class="cls-1" x1="392.53" y1="523.38" x2="392.53" y2="510.29"/><line class="cls-1" x1="523.38" y1="523.38" x2="523.38" y2="510.29"/><line class="cls-1" y1="523.38"/><path class="cls-2" d="M458,157l-67.79,27.12a178.61,178.61,0,0,0-93.42,85.95l-67.1,134.21a81.09,81.09,0,0,1-102.66,39L65.42,418.7"/><path class="cls-3" d="M458,471l-108.32-390c-7.93-28.56-46.9-32.33-60.15-5.81L217.4,219.43a124.34,124.34,0,0,1-65,59.81L65.42,314"/></svg>